<svg xmlns="http://www.w3.org/2000/svg" viewBox="0 0 1200 630" width="1200" height="630">
  <defs>
    <linearGradient id="bg" x1="0" y1="0" x2="1" y2="1">
      <stop offset="0" stop-color="#0d0d0f"/>
      <stop offset="1" stop-color="#161016"/>
    </linearGradient>
    <linearGradient id="car" x1="0" y1="0" x2="0" y2="1">
      <stop offset="0" stop-color="#ff2a24"/>
      <stop offset="1" stop-color="#c20500"/>
    </linearGradient>
  </defs>
  <rect width="1200" height="630" fill="url(#bg)"/>
  <rect x="0" y="0" width="1200" height="10" fill="#e10600"/>
  <g transform="translate(0,-40)">
    <rect x="120" y="470" width="960" height="8" fill="#e10600" opacity="0.35"/>
    <path d="M180 470 L260 470 C300 420 360 405 470 400 L620 400 C660 360 740 350 840 360 C930 370 1010 385 1050 420 L1080 440 C1090 446 1086 470 1066 472 L280 476 C220 476 190 474 180 470Z" fill="url(#car)"/>
    <ellipse cx="640" cy="410" rx="34" ry="16" fill="#0b0b0d"/>
    <circle cx="330" cy="500" r="60" fill="#0c0c0e"/><circle cx="330" cy="500" r="30" fill="#1a1a1e"/><circle cx="330" cy="500" r="12" fill="#e10600"/>
    <circle cx="880" cy="500" r="60" fill="#0c0c0e"/><circle cx="880" cy="500" r="30" fill="#1a1a1e"/><circle cx="880" cy="500" r="12" fill="#e10600"/>
  </g>
  <text x="90" y="150" font-family="Arial, sans-serif" font-weight="900" font-size="34" letter-spacing="6" fill="#e10600">AB · MOTORSPORT</text>
  <text x="86" y="250" font-family="Arial, sans-serif" font-weight="900" font-size="110" fill="#f5f5f7">AYUSH BHATT</text>
  <text x="90" y="310" font-family="Arial, sans-serif" font-weight="700" font-size="34" fill="#c3c7cc">Software Developer · #6 · Backend &amp; Cloud Platforms</text>
</svg>
